<svg width="25" height="11" viewBox="0 0 25 11" fill="none" xmlns="http://www.w3.org/2000/svg">
<path d="M24.1069 9.96322C23.6139 9.96322 23.2142 9.56358 23.2142 9.07057V6.39268H20.5363V9.07057C20.5363 9.56358 20.1367 9.96322 19.6437 9.96322C19.1507 9.96322 18.751 9.56358 18.751 9.07057V6.39268H10.6371C10.1441 9.30923 7.38012 11.2739 4.46356 10.7809C1.54701 10.288 -0.417691 7.52398 0.0752622 4.60743C0.568215 1.69088 3.3322 -0.273821 6.24876 0.219184C8.49631 0.599111 10.2571 2.35993 10.637 4.60743H24.1069C24.5999 4.60743 24.9995 5.00708 24.9995 5.50008V9.07063C24.9995 9.56358 24.5999 9.96322 24.1069 9.96322ZM5.3616 1.92953C3.38963 1.92953 1.79105 3.52811 1.79105 5.50008C1.79105 7.47205 3.38963 9.07063 5.3616 9.07063C7.33357 9.07063 8.93215 7.47205 8.93215 5.50008C8.93215 3.52811 7.33357 1.92953 5.3616 1.92953Z" fill="white"/>
</svg>
