<svg width="21" height="21" viewBox="0 0 21 21" fill="none" xmlns="http://www.w3.org/2000/svg">
<g clip-path="url(#clip0_9853_988)">
<path d="M19.0873 8.48844H17.4594C17.3229 8.04279 17.1442 7.61235 16.9273 7.20235L18.0773 6.05235C18.3233 5.80627 18.459 5.47844 18.459 5.12931C18.459 4.78061 18.3233 4.45279 18.0773 4.2067L16.8468 2.97627C16.3551 2.48453 15.4942 2.48322 15.0016 2.97627L13.8516 4.12627C13.442 3.90931 13.0112 3.73105 12.5655 3.59409V1.9667C12.5655 1.24757 11.9803 0.662354 11.2612 0.662354H9.52204C8.80291 0.662354 8.21769 1.24757 8.21769 1.9667V3.59453C7.77204 3.73148 7.3416 3.90974 6.9316 4.1267L5.78117 2.9767C5.27247 2.46801 4.44464 2.46801 3.93595 2.9767L2.70508 4.20714C2.19682 4.71583 2.19682 5.54366 2.70508 6.05235L3.85508 7.20279C3.63812 7.61235 3.45986 8.04322 3.32291 8.48887H1.69595C0.976819 8.48887 0.391602 9.07409 0.391602 9.79322V11.5324C0.391602 12.251 0.976819 12.8363 1.69595 12.8363H3.32378C3.46073 13.2819 3.63899 13.7124 3.85595 14.1224L2.70595 15.2728C2.19725 15.7815 2.19725 16.6093 2.70595 17.118L3.93638 18.3489C4.44508 18.8571 5.27291 18.8571 5.7816 18.3489L6.93204 17.1989C7.3416 17.4158 7.77247 17.5941 8.21812 17.731V19.358C8.21812 20.0771 8.80334 20.6624 9.52247 20.6624H11.2616C11.9807 20.6624 12.5659 20.0771 12.5659 19.358V17.7302C13.0116 17.5932 13.4425 17.415 13.852 17.198L15.002 18.3484C15.4951 18.841 16.3559 18.8402 16.8473 18.3484L18.0777 17.118C18.3238 16.8719 18.4594 16.5441 18.4594 16.1954C18.4594 15.8463 18.3238 15.5189 18.0777 15.2728L16.9277 14.1224C17.1446 13.7128 17.3229 13.2819 17.4599 12.8363H19.0873C19.8064 12.8363 20.3916 12.251 20.3916 11.5319V9.79279C20.3916 9.07366 19.8064 8.48844 19.0873 8.48844ZM19.522 11.5319C19.522 11.7715 19.3273 11.9667 19.0873 11.9667H17.1307C16.9325 11.9667 16.7594 12.101 16.7099 12.2928C16.556 12.8863 16.3216 13.4528 16.0125 13.9763C15.912 14.1471 15.9394 14.3645 16.0794 14.5045L17.462 15.8876C17.5438 15.9693 17.589 16.0784 17.589 16.1954C17.589 16.3124 17.5438 16.4215 17.462 16.5032L16.2316 17.7337C16.0681 17.8971 15.7799 17.8971 15.6159 17.7337L14.2333 16.351C14.0933 16.2106 13.8759 16.1837 13.7046 16.2841C13.182 16.5928 12.6155 16.8276 12.0216 16.981C11.8303 17.0302 11.6959 17.2032 11.6959 17.4015V19.358C11.6959 19.5976 11.5012 19.7928 11.2612 19.7928H9.52204C9.28247 19.7928 9.08725 19.5976 9.08725 19.358V17.4015C9.08725 17.2032 8.95291 17.0302 8.76117 16.9806C8.16769 16.8271 7.60117 16.5928 7.07769 16.2837C7.00899 16.2428 6.93291 16.2232 6.85682 16.2232C6.74421 16.2232 6.63291 16.2667 6.54899 16.3506L5.16638 17.7332C4.99638 17.9028 4.72073 17.9028 4.55073 17.7332L3.3203 16.5028C3.1503 16.3328 3.1503 16.0567 3.3203 15.8871L4.70291 14.5045C4.84334 14.3641 4.87073 14.1467 4.76986 13.9763C4.46117 13.4528 4.22638 12.8867 4.07291 12.2928C4.02378 12.101 3.85073 11.9667 3.65247 11.9667H1.69595C1.45638 11.9667 1.26117 11.7715 1.26117 11.5319V9.79279C1.26117 9.55322 1.45638 9.35801 1.69595 9.35801H3.65247C3.85073 9.35801 4.02378 9.22366 4.07334 9.03192C4.22682 8.43844 4.46117 7.87192 4.7703 7.34844C4.87117 7.17757 4.84378 6.96018 4.70334 6.82018L3.32073 5.43757C3.15117 5.26801 3.15117 4.99192 3.32073 4.82192L4.55117 3.59148C4.72117 3.42148 4.99682 3.42192 5.16682 3.59148L6.54943 4.97409C6.68986 5.11453 6.90682 5.14235 7.07769 5.04105C7.60117 4.73235 8.16725 4.49757 8.76117 4.34409C8.95291 4.29453 9.08725 4.12148 9.08725 3.92322V1.9667C9.08725 1.72714 9.28247 1.53192 9.52204 1.53192H11.2612C11.5012 1.53192 11.6959 1.72714 11.6959 1.9667V3.92322C11.6959 4.12148 11.8303 4.29453 12.022 4.34409C12.6159 4.49757 13.1825 4.73235 13.7051 5.04105C13.8764 5.14192 14.0938 5.11496 14.2338 4.97409L15.6164 3.59148C15.7803 3.42714 16.0686 3.42757 16.232 3.59148L17.4625 4.82192C17.5442 4.90366 17.5894 5.01322 17.5894 5.12974C17.5894 5.24627 17.5442 5.35583 17.4625 5.43757L16.0799 6.82018C15.9399 6.96061 15.912 7.17801 16.0129 7.34844C16.322 7.87192 16.5564 8.43801 16.7103 9.03192C16.7594 9.22366 16.9325 9.35801 17.1307 9.35801H19.0873C19.3273 9.35801 19.522 9.55322 19.522 9.79279V11.5319Z" fill="black"/>
<path d="M10.3916 6.74927C8.23417 6.74927 6.47852 8.50492 6.47852 10.6623C6.47852 12.8197 8.23417 14.5753 10.3916 14.5753C12.5494 14.5753 14.3046 12.8197 14.3046 10.6623C14.3046 8.50492 12.5494 6.74927 10.3916 6.74927ZM10.3916 13.7058C8.7133 13.7058 7.34808 12.3406 7.34808 10.6623C7.34808 8.98405 8.7133 7.61883 10.3916 7.61883C12.0694 7.61883 13.435 8.98405 13.435 10.6623C13.435 12.3406 12.0694 13.7058 10.3916 13.7058Z" fill="black"/>
</g>
<defs>
<clipPath id="clip0_9853_988">
<rect width="20" height="20" fill="white" transform="translate(0.391602 0.662354)"/>
</clipPath>
</defs>
</svg>
