<svg width="21" height="20" viewBox="0 0 21 20" fill="none" xmlns="http://www.w3.org/2000/svg">
<g clip-path="url(#clip0_9853_39)">
<path d="M17.4452 19.3744H4.16394C3.17316 19.3744 2.36707 18.5684 2.36707 17.5776V8.12366C2.36707 7.7785 2.64687 7.49866 2.99207 7.49866C3.33726 7.49866 3.61707 7.7785 3.61707 8.12366V17.5776C3.61707 17.8791 3.86238 18.1244 4.16394 18.1244H17.4452C17.7468 18.1244 17.9921 17.8791 17.9921 17.5776V8.12366C17.9921 7.7785 18.2719 7.49866 18.6171 7.49866C18.9623 7.49866 19.2421 7.7785 19.2421 8.12366V17.5776C19.2421 18.5683 18.436 19.3744 17.4452 19.3744Z" fill="black"/>
<path d="M20.1798 10.3109C20.0198 10.3109 19.8599 10.2499 19.7379 10.1278L11.9649 2.35491C11.3252 1.71522 10.2844 1.71522 9.64472 2.35491L1.87175 10.1279C1.62769 10.372 1.23195 10.372 0.987886 10.1279C0.743784 9.88382 0.743784 9.48808 0.987886 9.24401L8.76085 1.47101C9.88788 0.343975 11.7218 0.343975 12.8487 1.47101L20.6217 9.24397C20.8658 9.48808 20.8658 9.88378 20.6217 10.1278C20.4997 10.2499 20.3398 10.3109 20.1798 10.3109Z" fill="black"/>
<path d="M13.3046 19.3744H8.30457C7.95937 19.3744 7.67957 19.0945 7.67957 18.7494V13.2025C7.67957 12.1256 8.55574 11.2494 9.63269 11.2494H11.9764C13.0534 11.2494 13.9296 12.1256 13.9296 13.2025V18.7494C13.9296 19.0945 13.6498 19.3744 13.3046 19.3744ZM8.92957 18.1244H12.6796V13.2025C12.6796 12.8148 12.3641 12.4994 11.9764 12.4994H9.63269C9.24499 12.4994 8.92957 12.8148 8.92957 13.2025V18.1244Z" fill="black"/>
</g>
<defs>
<clipPath id="clip0_9853_39">
<rect width="20" height="20" fill="white" transform="translate(0.804565)"/>
</clipPath>
</defs>
</svg>
