<svg width="36" height="35" viewBox="0 0 36 35" fill="none" xmlns="http://www.w3.org/2000/svg">
<path d="M24.2783 0H11.1533C5.11363 0 0.21582 4.89781 0.21582 10.9375V24.0625C0.21582 30.1022 5.11363 35 11.1533 35H24.2783C30.318 35 35.2158 30.1022 35.2158 24.0625V10.9375C35.2158 4.89781 30.318 0 24.2783 0ZM31.9346 24.0625C31.9346 28.2844 28.5002 31.7188 24.2783 31.7188H11.1533C6.93145 31.7188 3.49707 28.2844 3.49707 24.0625V10.9375C3.49707 6.71563 6.93145 3.28125 11.1533 3.28125H24.2783C28.5002 3.28125 31.9346 6.71563 31.9346 10.9375V24.0625Z" fill="black"/>
</svg>
