<svg width="35" height="35" viewBox="0 0 35 35" fill="none" xmlns="http://www.w3.org/2000/svg">
<path d="M29.8744 5.12562C26.5691 1.82034 22.1746 0 17.5003 0H17.4997C12.8254 0 8.4309 1.82034 5.12562 5.12562C1.82034 8.4309 0 12.8257 0 17.5C0 22.1743 1.82034 26.5691 5.12562 29.8744C8.4309 33.1797 12.8257 35 17.5 35C22.1743 35 26.5691 33.1797 29.8744 29.8744C33.1797 26.5691 35 22.1743 35 17.5C35 12.8257 33.1797 8.4309 29.8744 5.12562ZM31.0175 24.9728H25.8957C26.5819 22.9621 26.9953 20.785 27.0917 18.5254H32.9142C32.7612 20.8517 32.091 23.0387 31.0175 24.9728ZM17.5 32.7975C15.3173 31.4987 13.5071 29.4856 12.2051 27.0236H22.7949C21.4929 29.4856 19.6827 31.4987 17.5 32.7975ZM11.2782 24.9728C10.5241 22.9944 10.067 20.8098 9.96124 18.5254H25.0388C24.933 20.8098 24.4756 22.9944 23.7215 24.9728H11.2782ZM2.08576 18.5254H7.90833C8.00472 20.785 8.41808 22.9621 9.10435 24.9728H3.98247C2.90901 23.0387 2.23877 20.8517 2.08576 18.5254ZM3.98247 10.0272H9.10435C8.41808 12.0379 8.00472 14.215 7.90833 16.4746H2.08576C2.23877 14.1483 2.90901 11.9613 3.98247 10.0272ZM17.5 2.20245C19.6827 3.50128 21.4929 5.51441 22.7949 7.97642H12.2051C13.5071 5.51441 15.3173 3.50128 17.5 2.20245ZM23.7218 10.0272C24.4759 12.0056 24.933 14.1902 25.0388 16.4746H9.96124C10.067 14.1902 10.5244 12.0056 11.2785 10.0272H23.7218ZM32.9142 16.4746H27.0917C26.9953 14.215 26.5819 12.0379 25.8957 10.0272H31.0175C32.091 11.9613 32.7612 14.1483 32.9142 16.4746ZM25.0745 7.97642C24.0999 5.87116 22.8032 4.01077 21.2464 2.51114C24.6254 3.35602 27.5678 5.31574 29.6568 7.97642H25.0745ZM13.7536 2.51114C12.1968 4.01077 10.9001 5.87116 9.92546 7.97642H5.34325C7.43221 5.31574 10.3746 3.35602 13.7536 2.51114ZM9.92546 27.0236C10.9001 29.1288 12.1968 30.9892 13.7536 32.4889C10.3746 31.644 7.43221 29.6843 5.34325 27.0236H9.92546ZM21.2464 32.4889C22.8032 30.9892 24.0999 29.1286 25.0745 27.0236H29.6568C27.5678 29.6843 24.6254 31.644 21.2464 32.4889Z" fill="black"/>
</svg>
