<svg width="19" height="18" viewBox="0 0 19 18" fill="none" xmlns="http://www.w3.org/2000/svg">
<g clip-path="url(#clip0_9853_67)">
<path d="M9.48867 16.475H2.76107C2.34844 16.475 2.01357 16.1401 2.01357 15.7275V2.27233C2.01357 1.8597 2.34847 1.52484 2.76107 1.52484H9.48867C9.90204 1.52484 10.2362 1.19071 10.2362 0.777348C10.2362 0.36398 9.90204 0.0297852 9.48867 0.0297852H2.76107C1.52469 0.0297852 0.518555 1.03596 0.518555 2.27233V15.7275C0.518555 16.9638 1.52469 17.97 2.76107 17.97H9.48867C9.90204 17.97 10.2362 17.6359 10.2362 17.2225C10.2362 16.8091 9.90204 16.475 9.48867 16.475Z" fill="black"/>
<path d="M18.2957 8.46784L13.7508 3.98278C13.4578 3.69274 12.9839 3.6965 12.6939 3.99027C12.4038 4.28403 12.4068 4.7572 12.7013 5.04724L15.9493 8.25254H7.24603C6.83266 8.25254 6.49854 8.58667 6.49854 9.00003C6.49854 9.4134 6.83266 9.74756 7.24603 9.74756H15.9493L12.7013 12.9529C12.4068 13.2429 12.4046 13.7161 12.6939 14.0098C12.8404 14.1578 13.0332 14.2326 13.2261 14.2326C13.416 14.2326 13.6058 14.1608 13.7508 14.0173L18.2957 9.53223C18.4377 9.39171 18.5184 9.20032 18.5184 9C18.5184 8.79975 18.4384 8.60913 18.2957 8.46784Z" fill="black"/>
</g>
<defs>
<clipPath id="clip0_9853_67">
<rect width="18" height="18" fill="white" transform="translate(0.518555)"/>
</clipPath>
</defs>
</svg>
